<svg xmlns="http://www.w3.org/2000/svg" width="24" height="24" viewBox="0 0 90 90" fill="none"><path d="M23.575 89.924H1.407V28.439h22.167V89.924zM5.835 85.496h13.311v-52.63H5.835V85.496zM12.491 25.072C5.603 25.072 0 19.467 0 12.576c0-6.893 5.603-12.5 12.491-12.5c6.887 0 12.491 5.608 12.491 12.5C24.982 19.467 19.379 25.072 12.491 25.072zM12.491 4.504c-4.446 0-8.063 3.621-8.063 8.072c0 4.448 3.617 8.068 8.063 8.068c4.446 0 8.063-3.619 8.063-8.068C20.554 8.125 16.937 4.504 12.491 4.504z" fill="#E8A012"/><path d="M90 89.924H67.846V59.962c0-8.75-1.048-12.915-7.001-12.915c-6.14 0-8.422 3.371-8.422 12.439v30.438H30.269V28.439h21.439v4.046c3.376-3.03 8.363-5.459 14.806-5.459C87.21 27.025 90 41.883 90 56.417V89.924zM72.274 85.496h13.298v-29.08c0-15.411-3.189-24.963-19.059-24.963c-7.81 0-12.864 4.328-14.819 8.035l-.623 1.181h-3.792v-7.803H34.697v52.63h13.298v-26.01c0-4.614 0-16.867 12.85-16.867c11.429 0 11.429 11.282 11.429 17.343V85.496z" fill="#E8A012"/></svg>
